<svg width="120" height="30" viewBox="0 0 120 30" fill="none" xmlns="http://www.w3.org/2000/svg">
  <path d="M15.84 22H8.16V8H15.84C19.92 8 23.04 11.12 23.04 15C23.04 18.88 19.92 22 15.84 22ZM15.36 11.2H11.76V18.8H15.36C17.76 18.8 19.44 17.2 19.44 15C19.44 12.8 17.76 11.2 15.36 11.2Z" fill="#333333"/>
  <path d="M32.365 22.24C28.445 22.24 25.645 19.44 25.645 15.04C25.645 10.64 28.445 7.84 32.365 7.84C36.285 7.84 39.085 10.64 39.085 15.04C39.085 19.44 36.285 22.24 32.365 22.24ZM32.365 11.2C30.445 11.2 29.245 12.8 29.245 15.04C29.245 17.28 30.445 18.88 32.365 18.88C34.285 18.88 35.485 17.28 35.485 15.04C35.485 12.8 34.285 11.2 32.365 11.2Z" fill="#333333"/>
  <path d="M47.5078 22.24C43.5878 22.24 40.7878 19.44 40.7878 15.04C40.7878 10.64 43.5878 7.84 47.5078 7.84C51.4278 7.84 54.2278 10.64 54.2278 15.04C54.2278 19.44 51.4278 22.24 47.5078 22.24ZM47.5078 11.2C45.5878 11.2 44.3878 12.8 44.3878 15.04C44.3878 17.28 45.5878 18.88 47.5078 18.88C49.4278 18.88 50.6278 17.28 50.6278 15.04C50.6278 12.8 49.4278 11.2 47.5078 11.2Z" fill="#333333"/>
  <path d="M56.6805 22V8H60.2805V12.16H64.6805V8H68.2805V22H64.6805V15.36H60.2805V22H56.6805Z" fill="#333333"/>
  <path d="M78.343 22.24C74.423 22.24 71.623 19.44 71.623 15.04C71.623 10.64 74.423 7.84 78.343 7.84C80.823 7.84 82.903 8.96 84.023 10.8L81.303 12.8C80.663 11.76 79.623 11.2 78.423 11.2C76.503 11.2 75.223 12.8 75.223 15.04C75.223 17.28 76.503 18.88 78.423 18.88C79.623 18.88 80.663 18.32 81.303 17.28L84.023 19.28C82.903 21.12 80.823 22.24 78.343 22.24Z" fill="#333333"/>
  <path d="M86.1672 8H89.7672V18.8H96.1672V22H86.1672V8Z" fill="#333333"/>
  <path d="M98.1359 8H111.136V11.2H101.736V13.52H109.896V16.48H101.736V18.8H111.376V22H98.1359V8Z" fill="#333333"/>
</svg>

