<svg width="600" height="600" viewBox="0 0 600 600" fill="none" xmlns="http://www.w3.org/2000/svg">
  <rect width="600" height="600" fill="#F5F5F5"/>
  <path d="M300 200C270.6 200 246.7 223.9 246.7 253.3C246.7 282.8 270.6 306.7 300 306.7C329.4 306.7 353.3 282.8 353.3 253.3C353.3 223.9 329.4 200 300 200Z" fill="#666666"/>
  <path d="M400 160H373.3L360 140H240L226.7 160H200C177.9 160 160 177.9 160 200V360C160 382.1 177.9 400 200 400H400C422.1 400 440 382.1 440 360V200C440 177.9 422.1 160 400 160ZM300 340C252.6 340 213.3 300.7 213.3 253.3C213.3 206 252.6 166.7 300 166.7C347.4 166.7 386.7 206 386.7 253.3C386.7 300.7 347.4 340 300 340Z" fill="#666666"/>
</svg>

